<svg xmlns="http://www.w3.org/2000/svg" width="187" height="112" viewBox="0 0 187 112" fill="none"><path d="M53.1474 40.8615C53.1474 43.1385 53.3934 44.9846 53.824 46.3385C54.3161 47.6923 54.9312 49.1692 55.7924 50.7692C56.1 51.2615 56.223 51.7539 56.223 52.1846C56.223 52.8 55.8539 53.4154 55.0543 54.0308L51.1789 56.6154C50.6253 56.9846 50.0717 57.1692 49.5796 57.1692C48.9645 57.1692 48.3493 56.8615 47.7342 56.3077C46.873 55.3846 46.1349 54.4 45.5197 53.4154C44.9046 52.3692 44.2895 51.2 43.6128 49.7846C38.8148 55.4462 32.7865 58.2769 25.528 58.2769C20.3609 58.2769 16.2395 56.8 13.2253 53.8462C10.2112 50.8923 8.67336 46.9539 8.67336 42.0308C8.67336 36.8 10.5188 32.5539 14.2711 29.3539C18.0234 26.1539 23.0059 24.5539 29.3418 24.5539C31.4332 24.5539 33.5862 24.7385 35.8622 25.0462C38.1382 25.3539 40.4757 25.8462 42.9362 26.4V21.9077C42.9362 17.2308 41.952 13.9692 40.0451 12.0615C38.0766 10.1538 34.7549 9.23077 30.0184 9.23077C27.8655 9.23077 25.651 9.47693 23.375 10.0308C21.099 10.5846 18.8845 11.2615 16.7316 12.1231C15.7474 12.5538 15.0092 12.8 14.5786 12.9231C14.148 13.0462 13.8405 13.1077 13.5944 13.1077C12.7332 13.1077 12.3026 12.4923 12.3026 11.2V8.18462C12.3026 7.2 12.4257 6.46154 12.7332 6.03077C13.0408 5.6 13.5944 5.16923 14.4556 4.73846C16.6086 3.63077 19.1921 2.70769 22.2062 1.96923C25.2204 1.16923 28.4191 0.800003 31.8023 0.800003C39.1224 0.800003 44.474 2.46154 47.9188 5.78462C51.302 9.10769 53.0243 14.1539 53.0243 20.9231V40.8615H53.1474ZM28.173 50.2154C30.203 50.2154 32.2944 49.8462 34.5089 49.1077C36.7234 48.3692 38.6918 47.0154 40.3526 45.1692C41.3368 44 42.075 42.7077 42.4441 41.2308C42.8132 39.7539 43.0592 37.9692 43.0592 35.8769V33.2923C41.2753 32.8615 39.3684 32.4923 37.4 32.2462C35.4316 32 33.5247 31.8769 31.6178 31.8769C27.4964 31.8769 24.4822 32.6769 22.4523 34.3385C20.4224 36 19.4382 38.3385 19.4382 41.4154C19.4382 44.3077 20.1763 46.4615 21.7141 47.9385C23.1905 49.4769 25.3434 50.2154 28.173 50.2154ZM77.5681 56.8615C76.4609 56.8615 75.7227 56.6769 75.2306 56.2462C74.7385 55.8769 74.3079 55.0154 73.9388 53.8462L59.4832 6.27693C59.1141 5.04616 58.9296 4.24616 58.9296 3.81539C58.9296 2.83077 59.4217 2.27693 60.4059 2.27693H66.4342C67.603 2.27693 68.4026 2.46154 68.8332 2.89231C69.3253 3.26154 69.6944 4.12308 70.0635 5.29231L80.3977 46.0308L89.9937 5.29231C90.3013 4.06154 90.6704 3.26154 91.1625 2.89231C91.6546 2.52308 92.5158 2.27693 93.623 2.27693H98.5441C99.7128 2.27693 100.512 2.46154 101.005 2.89231C101.497 3.26154 101.927 4.12308 102.173 5.29231L111.892 46.5231L122.534 5.29231C122.903 4.06154 123.334 3.26154 123.764 2.89231C124.257 2.52308 125.056 2.27693 126.163 2.27693H131.884C132.868 2.27693 133.422 2.76923 133.422 3.81539C133.422 4.12308 133.361 4.43077 133.299 4.8C133.237 5.16923 133.114 5.66154 132.868 6.33846L118.044 53.9077C117.675 55.1385 117.244 55.9385 116.752 56.3077C116.26 56.6769 115.46 56.9231 114.414 56.9231H109.124C107.956 56.9231 107.156 56.7385 106.664 56.3077C106.172 55.8769 105.741 55.0769 105.495 53.8462L95.9605 14.1538L86.4875 53.7846C86.1799 55.0154 85.8109 55.8154 85.3187 56.2462C84.8266 56.6769 83.9655 56.8615 82.8582 56.8615H77.5681ZM156.612 58.5231C153.414 58.5231 150.215 58.1539 147.139 57.4154C144.064 56.6769 141.665 55.8769 140.065 54.9539C139.081 54.4 138.405 53.7846 138.159 53.2308C137.912 52.6769 137.789 52.0615 137.789 51.5077V48.3692C137.789 47.0769 138.282 46.4615 139.204 46.4615C139.573 46.4615 139.942 46.5231 140.312 46.6462C140.681 46.7692 141.234 47.0154 141.849 47.2615C143.941 48.1846 146.217 48.9231 148.616 49.4154C151.076 49.9077 153.475 50.1539 155.936 50.1539C159.811 50.1539 162.825 49.4769 164.917 48.1231C167.008 46.7692 168.115 44.8 168.115 42.2769C168.115 40.5538 167.562 39.1385 166.455 37.9692C165.347 36.8 163.256 35.7539 160.242 34.7692L151.322 32C146.832 30.5846 143.51 28.4923 141.48 25.7231C139.45 23.0154 138.405 20 138.405 16.8C138.405 14.2154 138.958 11.9385 140.065 9.96923C141.173 8 142.649 6.27693 144.494 4.92308C146.34 3.5077 148.431 2.46154 150.892 1.72308C153.352 0.984618 155.936 0.676926 158.642 0.676926C159.996 0.676926 161.411 0.738464 162.764 0.923079C164.179 1.10769 165.47 1.35385 166.762 1.6C167.992 1.90769 169.161 2.21539 170.268 2.58462C171.376 2.95385 172.237 3.32308 172.852 3.69231C173.713 4.18462 174.328 4.67693 174.697 5.23077C175.066 5.72308 175.251 6.4 175.251 7.26154V10.1538C175.251 11.4462 174.759 12.1231 173.836 12.1231C173.344 12.1231 172.544 11.8769 171.499 11.3846C167.992 9.78462 164.056 8.98462 159.688 8.98462C156.182 8.98462 153.414 9.53846 151.507 10.7077C149.6 11.8769 148.616 13.6615 148.616 16.1846C148.616 17.9077 149.231 19.3846 150.461 20.5539C151.691 21.7231 153.967 22.8923 157.228 23.9385L165.962 26.7077C170.391 28.1231 173.59 30.0923 175.497 32.6154C177.404 35.1385 178.327 38.0308 178.327 41.2308C178.327 43.8769 177.773 46.2769 176.727 48.3692C175.62 50.4615 174.144 52.3077 172.237 53.7846C170.33 55.3231 168.054 56.4308 165.409 57.2308C162.641 58.0923 159.75 58.5231 156.612 58.5231Z" fill="white"></path><path fill-rule="evenodd" clip-rule="evenodd" d="M168.239 88.4308C148.001 103.385 118.597 111.323 93.3155 111.323C57.8839 111.323 25.9586 98.2154 1.8454 76.4308C-0.0615107 74.7077 1.66086 72.3692 3.93684 73.7231C30.0184 88.8615 62.1898 98.0308 95.4684 98.0308C117.921 98.0308 142.588 93.3539 165.286 83.7539C168.669 82.2154 171.56 85.9692 168.239 88.4308Z" fill="#FF9900"></path><path fill-rule="evenodd" clip-rule="evenodd" d="M176.666 78.8308C174.082 75.5077 159.565 77.2308 152.983 78.0308C151.015 78.2769 150.707 76.5538 152.491 75.2615C164.056 67.1385 183.063 69.4769 185.278 72.1846C187.492 74.9538 184.663 93.9692 173.836 103.077C172.175 104.492 170.576 103.754 171.314 101.908C173.775 95.8154 179.249 82.0923 176.666 78.8308Z" fill="#FF9900"></path></svg>