<svg width="512" height="512" viewBox="0 0 512 512" fill="none" xmlns="http://www.w3.org/2000/svg">
<g clip-path="url(#clip0_104_1079)">
<path d="M55.6799 5.39174C47.947 16.1129 39.6056 26.2718 31.4944 36.6994C23.0153 47.5967 38.2498 63.0649 46.8316 52.0344C50.2951 47.5832 53.7981 43.1703 57.2875 38.7518C65.5747 120.178 87.3331 199.957 128.984 270.974C172.749 345.598 237.196 405.352 310.56 450.325C360.202 480.758 414.451 504.784 472.657 511.908C486.52 513.604 486.356 491.893 472.657 490.218C417.409 483.456 366.092 458.928 319.136 430.144C281.59 407.127 246.76 379.959 215.823 348.597C156.442 288.401 116.402 212.974 95.2263 131.418C87.7745 102.72 82.743 73.4721 79.5301 44.0181C81.7586 46.6721 83.9735 49.3397 86.159 52.0355C94.9746 62.9034 110.224 47.459 101.496 36.7006C92.2077 25.2479 82.4935 14.2254 72.7139 3.19603C67.7061 -2.44846 59.5159 0.0723773 55.6799 5.39174Z" fill="#D9D9D9"/>
</g>
<defs>
<clipPath id="clip0_104_1079">
<rect width="512" height="512" fill="white" transform="translate(2.23802e-05 512) rotate(-90)"/>
</clipPath>
</defs>
</svg>
