<svg width="512" height="512" viewBox="0 0 512 512" fill="none" xmlns="http://www.w3.org/2000/svg">
<g clip-path="url(#clip0_104_1082)">
<path d="M456.32 5.39174C464.053 16.1129 472.394 26.2718 480.506 36.6994C488.985 47.5967 473.75 63.0649 465.168 52.0344C461.705 47.5832 458.202 43.1703 454.713 38.7518C446.425 120.178 424.667 199.957 383.016 270.974C339.251 345.598 274.804 405.352 201.44 450.325C151.798 480.758 97.5487 504.784 39.3427 511.908C25.4799 513.604 25.6436 491.893 39.3427 490.218C94.591 483.456 145.908 458.928 192.864 430.144C230.41 407.127 265.24 379.959 296.177 348.597C355.558 288.401 395.598 212.974 416.774 131.418C424.226 102.72 429.257 73.4721 432.47 44.0181C430.241 46.6721 428.027 49.3397 425.841 52.0355C417.025 62.9034 401.776 47.459 410.504 36.7006C419.792 25.2479 429.507 14.2254 439.286 3.19603C444.294 -2.44846 452.484 0.0723773 456.32 5.39174Z" fill="#D9D9D9"/>
</g>
<defs>
<clipPath id="clip0_104_1082">
<rect width="512" height="512" fill="white" transform="matrix(4.37114e-08 -1 -1 -4.37114e-08 512 512)"/>
</clipPath>
</defs>
</svg>
